<svg version="1.1" width="512" height="384" viewBox="0 0 640 480">
    <desc>Created with Fabric.js 3.6.3</desc>
    <defs>
    </defs>
    <g transform="matrix(0.92 0 0 0.92 346.34 198.12)">
        <circle style="stroke: rgb(0,0,0); stroke-width: 2; stroke-dasharray: none; stroke-linecap: butt; stroke-dashoffset: 0; stroke-linejoin: miter; stroke-miterlimit: 4; fill: none; fill-rule: nonzero; opacity: 1;" cx="0" cy="0" r="40" />
    </g>
    <g transform="matrix(1 0 0 1 347.52 120.4)">
        <line style="stroke: rgb(0,0,0); stroke-width: 2; stroke-dasharray: none; stroke-linecap: butt; stroke-dashoffset: 0; stroke-linejoin: miter; stroke-miterlimit: 4; fill: rgb(0,0,0); fill-rule: nonzero; opacity: 1;" x1="0" y1="-41.05263157894736" x2="0" y2="41.05263157894736" />
    </g>
    <g transform="matrix(1 0 0 1 247.36 223.49)">
        <line style="stroke: rgb(0,0,0); stroke-width: 2; stroke-dasharray: none; stroke-linecap: butt; stroke-dashoffset: 0; stroke-linejoin: miter; stroke-miterlimit: 4; fill: rgb(0,0,0); fill-rule: nonzero; opacity: 1;" x1="-3" y1="-144" x2="3" y2="144" />
    </g>
    <g transform="matrix(1 0 0 1 295.35 81.58)">
        <line style="stroke: rgb(0,0,0); stroke-width: 2; stroke-dasharray: none; stroke-linecap: butt; stroke-dashoffset: 0; stroke-linejoin: miter; stroke-miterlimit: 4; fill: rgb(0,0,0); fill-rule: nonzero; opacity: 1;" x1="-52.173913043478265" y1="0.8695652173913047" x2="52.173913043478265" y2="-0.8695652173913047" />
    </g>
    <g transform="matrix(1 0 0 1 265.35 101.14)">
        <line style="stroke: rgb(0,0,0); stroke-width: 2; stroke-dasharray: none; stroke-linecap: butt; stroke-dashoffset: 0; stroke-linejoin: miter; stroke-miterlimit: 4; fill: rgb(0,0,0); fill-rule: nonzero; opacity: 1;" x1="22.173913043478265" y1="-20.434782608695656" x2="-22.173913043478265" y2="20.434782608695656" />
    </g>
    <g transform="matrix(1 0 0 1 251.44 367.66)">
        <line style="stroke: rgb(0,0,0); stroke-width: 2; stroke-dasharray: none; stroke-linecap: butt; stroke-dashoffset: 0; stroke-linejoin: miter; stroke-miterlimit: 4; fill: rgb(0,0,0); fill-rule: nonzero; opacity: 1;" x1="-43.91304347826086" y1="0.8695652173913118" x2="43.91304347826086" y2="-0.8695652173913118" />
    </g>
    <g transform="matrix(1 0 0 1 331.12 190.88)">
        <line style="stroke: rgb(0,0,0); stroke-width: 2; stroke-dasharray: none; stroke-linecap: butt; stroke-dashoffset: 0; stroke-linejoin: miter; stroke-miterlimit: 4; fill: rgb(0,0,0); fill-rule: nonzero; opacity: 1;" x1="-0.20000000000001705" y1="-9" x2="0.20000000000001705" y2="9" />
    </g>
    <g transform="matrix(1 0 0 1 360.92 190.28)">
        <line style="stroke: rgb(0,0,0); stroke-width: 2; stroke-dasharray: none; stroke-linecap: butt; stroke-dashoffset: 0; stroke-linejoin: miter; stroke-miterlimit: 4; fill: rgb(0,0,0); fill-rule: nonzero; opacity: 1;" x1="-0.39999999999997726" y1="-7.999999999999986" x2="0.39999999999997726" y2="7.999999999999986" />
    </g>
    <g transform="matrix(1 0 0 1 344.52 211.68)">
        <line style="stroke: rgb(0,0,0); stroke-width: 2; stroke-dasharray: none; stroke-linecap: butt; stroke-dashoffset: 0; stroke-linejoin: miter; stroke-miterlimit: 4; fill: rgb(0,0,0); fill-rule: nonzero; opacity: 1;" vector-effect="non-scaling-stroke" x1="-4.799999999999983" y1="4.599999999999994" x2="4.799999999999983" y2="-4.599999999999994" />
    </g>
    <g transform="matrix(1 0 0 1 354.52 212.28)">
        <line style="stroke: rgb(0,0,0); stroke-width: 2; stroke-dasharray: none; stroke-linecap: butt; stroke-dashoffset: 0; stroke-linejoin: miter; stroke-miterlimit: 4; fill: rgb(0,0,0); fill-rule: nonzero; opacity: 1;" vector-effect="non-scaling-stroke" x1="-5.200000000000017" y1="-5.200000000000003" x2="5.200000000000017" y2="5.200000000000003" />
    </g>
</svg>
